<svg xmlns="http://www.w3.org/2000/svg" viewBox="0 0 384 167.2"><defs><style>.cls-1,.cls-2,.cls-3,.cls-4,.cls-5,.cls-6{fill-rule:evenodd;}.cls-2{fill:#d81d26;stroke:#d81d26;}.cls-2,.cls-3,.cls-4,.cls-6{stroke-miterlimit:22.93;stroke-width:0.57px;}.cls-3{fill:#ba1921;stroke:#ba1921;}.cls-4{fill:#a0131c;stroke:#a0131c;}.cls-5,.cls-6{fill:#c90a14;}.cls-6{stroke:#c90a14;}</style></defs><g id="Capa_2" data-name="Capa 2"><g id="Capa_1-2" data-name="Capa 1"><path class="cls-1" d="M0,126.53V84.13a3.17,3.17,0,0,1,.93-2.28A3,3,0,0,1,3.2,80.9H13.3a4.42,4.42,0,0,1,2.54.95A8.46,8.46,0,0,1,18,84.13l20.76,31.64V84.06a3.11,3.11,0,0,1,.89-2.24,3,3,0,0,1,2.19-.92h5.62a2.92,2.92,0,0,1,2.19.92,3.2,3.2,0,0,1,.9,2.31v42.4a3.1,3.1,0,0,1-.92,2.26,3,3,0,0,1-2.24.94H36.27a4.74,4.74,0,0,1-2.68-.94,7.25,7.25,0,0,1-2.19-2.26L12.84,97.32v29.21a3,3,0,0,1-1,2.26,3.24,3.24,0,0,1-2.34.94H3.34A3.26,3.26,0,0,1,1,128.79a3,3,0,0,1-1-2.26Zm56.42.06L65,94.17q3.47-13.24,22.6-13.27h18.36a2.65,2.65,0,0,1,2.09.95,3.25,3.25,0,0,1,.84,2.21V126.6a2.88,2.88,0,0,1-1,2.22,3.19,3.19,0,0,1-2.28.91H99.23a3.05,3.05,0,0,1-2.29-.91,3.09,3.09,0,0,1-.91-2.29v-8.59H71.91l-2.29,8.61a4,4,0,0,1-1.55,2.29,4.12,4.12,0,0,1-2.52.89H58.83a2.33,2.33,0,0,1-2-.92,2.17,2.17,0,0,1-.48-1.39c0-.26,0-.53.08-.83Zm18.07-18.28H96V90.53H86.36a9,9,0,0,0-9,6.86l-2.92,10.92Zm44.15,18.22V84.13a3.17,3.17,0,0,1,.93-2.28,3,3,0,0,1,2.26-.95h10.11a4.37,4.37,0,0,1,2.53.95,8.35,8.35,0,0,1,2.2,2.28l20.75,31.64V84.06a3.08,3.08,0,0,1,.9-2.24,2.92,2.92,0,0,1,2.18-.92h5.63a2.94,2.94,0,0,1,2.19.92,3.19,3.19,0,0,1,.89,2.31v42.4a3.06,3.06,0,0,1-.92,2.26,3,3,0,0,1-2.23.94H154.91a4.72,4.72,0,0,1-2.68-.94,7.14,7.14,0,0,1-2.19-2.26L131.47,97.32v29.21a3,3,0,0,1-1,2.26,3.24,3.24,0,0,1-2.34.94H122a3.29,3.29,0,0,1-2.35-.94,3,3,0,0,1-1-2.26Zm56.42.06,8.56-32.42q3.47-13.24,22.6-13.27h18.36a2.66,2.66,0,0,1,2.09.95,3.25,3.25,0,0,1,.84,2.21V126.6a2.89,2.89,0,0,1-1,2.22,3.17,3.17,0,0,1-2.28.91h-6.4a3.11,3.11,0,0,1-3.2-3.2v-8.59H190.55l-2.29,8.61a4.08,4.08,0,0,1-1.55,2.29,4.15,4.15,0,0,1-2.52.89h-6.72a2.35,2.35,0,0,1-2-.92,2.22,2.22,0,0,1-.47-1.39c0-.26,0-.53.08-.83Zm18.07-18.28h21.54V90.53H205a9,9,0,0,0-8.95,6.86l-2.92,10.92Zm44.14,18.29V84.13a3.11,3.11,0,0,1,1-2.28,3.08,3.08,0,0,1,2.27-.95h6.34a3.11,3.11,0,0,1,2.33.95,3.17,3.17,0,0,1,.94,2.28v42.4a3,3,0,0,1-1,2.26,3.18,3.18,0,0,1-2.3.94H240.5a3.16,3.16,0,0,1-2.27-.91,2.89,2.89,0,0,1-1-2.22Zm22.58-.14V84.2a3.29,3.29,0,0,1,.93-2.35A3,3,0,0,1,263,80.9h14a4,4,0,0,1,2.55.95,4.71,4.71,0,0,1,1.61,2.28l10.12,29.07,10.14-29.07a4.56,4.56,0,0,1,1.6-2.28,4,4,0,0,1,2.55-.95h14a3,3,0,0,1,2.26.95,3.3,3.3,0,0,1,.9,2.35v42.26a3.11,3.11,0,0,1-.95,2.33,3.19,3.19,0,0,1-2.32.94h-6.28a3.18,3.18,0,0,1-2.32-.94,3.11,3.11,0,0,1-1-2.33V93.19l-12,33.47a4.69,4.69,0,0,1-1.66,2.16,4,4,0,0,1-2.51.91h-4.86a4,4,0,0,1-2.5-.91,5,5,0,0,1-1.69-2.16l-12-33.47v33.27a3.11,3.11,0,0,1-1,2.33,3.15,3.15,0,0,1-2.31.94h-6.27a3.21,3.21,0,0,1-2.32-.94,3.1,3.1,0,0,1-1-2.33Zm76.29-1.79q-7-6.11-7-19.35t7-19.36q7-6.1,20.46-6.11T377,86q7,6.11,7,19.36t-7,19.35q-6.94,6.11-20.43,6.11t-20.46-6.11Zm9.32-31.52Q342,97.23,342,105.33t3.46,12.17q3.46,4.06,11.14,4.07t11.12-4.07q3.43-4.08,3.44-12.17t-3.44-12.18q-3.44-4.09-11.12-4.09T345.46,93.15Z"/><path class="cls-2" d="M246.64,41.54C206.3-9.07,154.76,24.81,113.65.85,149.05,54.46,181.57-3.7,246.64,41.54Z"/><path class="cls-3" d="M242,38.86c-43.32-31.34-78.66,2.79-110.8-10.63C165.24,65.39,185.28,17.27,242,38.86Z"/><path class="cls-4" d="M245,40.65c-38.43-19.93-59.64,15.4-91.29,12C189.94,75.73,192.91,30.74,245,40.65Z"/><path class="cls-5" d="M.9,161.45v-12a.77.77,0,0,1,.78-.8H4.54a.74.74,0,0,1,.56.23.76.76,0,0,1,.22.56v4.27H8.87a.73.73,0,0,1,.56.22.76.76,0,0,1,.21.56V156a.73.73,0,0,1-.22.56.74.74,0,0,1-.55.22H5.32v4.75a3,3,0,0,0,.62,2,2,2,0,0,0,1.64.72,7.53,7.53,0,0,0,.92-.07,5.65,5.65,0,0,1,.83-.08H9.8a.8.8,0,0,1,.57.21.7.7,0,0,1,.22.54v1.33a.66.66,0,0,1-.22.5,1,1,0,0,1-.57.26,18.46,18.46,0,0,1-3.4.25q-5.51,0-5.5-5.75ZM23,165.36A7,7,0,0,1,21,160a7.15,7.15,0,0,1,2-5.43,7.64,7.64,0,0,1,5.49-1.89A7.63,7.63,0,0,1,34,154.54a7.07,7.07,0,0,1,2,5.39v.75a.8.8,0,0,1-.23.58.78.78,0,0,1-.57.23H25.55a3.06,3.06,0,0,0,.9,2.13,3.56,3.56,0,0,0,2.38.67,3.11,3.11,0,0,0,2.5-.84,1.87,1.87,0,0,1,1.47-.68h1.91a.78.78,0,0,1,.57.23.82.82,0,0,1,.22.59c0,2.41-2.33,3.62-7,3.61a7.78,7.78,0,0,1-5.5-1.84Zm2.52-6.78h5.94c-.08-2-1.07-3-3-3s-2.88,1-3,3Zm21.17,1.36a7,7,0,0,1,2-5.43,7.92,7.92,0,0,1,5.61-1.85,10.54,10.54,0,0,1,5.33,1.13,3.63,3.63,0,0,1,1.9,3.32.7.7,0,0,1-.23.55.77.77,0,0,1-.57.22H58.79A1.75,1.75,0,0,1,57.3,157a3.05,3.05,0,0,0-2.79-1.2,3.16,3.16,0,0,0-2.62,1,5.27,5.27,0,0,0-.77,3.21,5,5,0,0,0,.8,3.18,3.31,3.31,0,0,0,2.73,1,3.06,3.06,0,0,0,2.78-1.19,1.75,1.75,0,0,1,1.49-.93h1.92a.81.81,0,0,1,.58.21.73.73,0,0,1,.23.54,3.65,3.65,0,0,1-1.9,3.33,10.47,10.47,0,0,1-5.32,1.13,8.2,8.2,0,0,1-5.74-1.84,7,7,0,0,1-2-5.42Zm26.19,6.22V149.4a.78.78,0,0,1,.23-.57.75.75,0,0,1,.56-.23h2.86a.74.74,0,0,1,.56.23.76.76,0,0,1,.22.56v5.12a7,7,0,0,1,4.47-1.85,5.86,5.86,0,0,1,4.26,1.52,6.2,6.2,0,0,1,1.56,4.63v7.35a.75.75,0,0,1-.22.56.81.81,0,0,1-.57.22H84a.78.78,0,0,1-.57-.23.75.75,0,0,1-.21-.55v-7.35c0-2-.82-3.06-2.44-3.06a5.15,5.15,0,0,0-3.43,1.83v8.58a.75.75,0,0,1-.22.56.8.8,0,0,1-.56.22H73.68a.75.75,0,0,1-.79-.78Zm53.7-6.22a7,7,0,0,1,2-5.43,7.92,7.92,0,0,1,5.61-1.85,10.54,10.54,0,0,1,5.33,1.13,3.63,3.63,0,0,1,1.9,3.32.72.72,0,0,1-.22.55.78.78,0,0,1-.58.22h-1.93a1.78,1.78,0,0,1-1.49-.93,3,3,0,0,0-2.78-1.2,3.17,3.17,0,0,0-2.63,1,5.28,5.28,0,0,0-.76,3.21,5,5,0,0,0,.79,3.18,3.31,3.31,0,0,0,2.73,1,3.06,3.06,0,0,0,2.78-1.19,1.75,1.75,0,0,1,1.49-.93h1.93a.8.8,0,0,1,.57.21.69.69,0,0,1,.23.54,3.64,3.64,0,0,1-1.89,3.33,10.54,10.54,0,0,1-5.33,1.13,8.2,8.2,0,0,1-5.74-1.84,7,7,0,0,1-2-5.42Zm26.2,6.22V149.4a.77.77,0,0,1,.78-.8h2.86a.78.78,0,0,1,.57.23.8.8,0,0,1,.21.57v16.76a.75.75,0,0,1-.22.56.8.8,0,0,1-.56.22h-2.86a.77.77,0,0,1-.56-.22.75.75,0,0,1-.22-.56Zm17.91-.8a8.4,8.4,0,0,1,0-10.86,9.86,9.86,0,0,1,11.47,0,8.37,8.37,0,0,1,0,10.86,9.86,9.86,0,0,1-11.47,0Zm3.23-8.75a7.35,7.35,0,0,0,0,6.63,3.51,3.51,0,0,0,5,0,7.27,7.27,0,0,0,0-6.63,3.54,3.54,0,0,0-5,0Zm21.75,4.44v-7.33a.77.77,0,0,1,.22-.57.75.75,0,0,1,.56-.22h2.86a.73.73,0,0,1,.56.22.77.77,0,0,1,.22.57V161c0,2.05.81,3.07,2.43,3.07a5.19,5.19,0,0,0,3.44-1.84v-8.55a.75.75,0,0,1,.78-.79h2.85a.75.75,0,0,1,.79.79v12.44a.75.75,0,0,1-.22.56.81.81,0,0,1-.57.22h-2.85a.77.77,0,0,1-.78-.78v-.82a6.93,6.93,0,0,1-4.48,1.86,5.89,5.89,0,0,1-4.26-1.52,6.22,6.22,0,0,1-1.55-4.63Zm26.22-1.11a7.44,7.44,0,0,1,1.82-5.4,6.56,6.56,0,0,1,4.92-1.88,12.72,12.72,0,0,1,3.71.65v-3.92a.76.76,0,0,1,.22-.56.77.77,0,0,1,.56-.23H236a.78.78,0,0,1,.57.23.77.77,0,0,1,.22.57v16.76a.75.75,0,0,1-.22.56.81.81,0,0,1-.57.22h-2.45a.75.75,0,0,1-.78-.78v-.4a7.33,7.33,0,0,1-4.45,1.44,6,6,0,0,1-4.62-1.89,7.52,7.52,0,0,1-1.78-5.37Zm4.43,0a5.66,5.66,0,0,0,.69,3.17,2.56,2.56,0,0,0,2.27,1,6.28,6.28,0,0,0,3.06-1.15v-6.69a9.59,9.59,0,0,0-2.79-.52,2.94,2.94,0,0,0-2.5,1,5.42,5.42,0,0,0-.73,3.19Zm50.31,6.22V149.4a.78.78,0,0,1,.23-.57.73.73,0,0,1,.55-.23h2.87a.74.74,0,0,1,.56.23.8.8,0,0,1,.22.56v5.12a6.94,6.94,0,0,1,4.47-1.85,5.86,5.86,0,0,1,4.26,1.52,6.2,6.2,0,0,1,1.56,4.63v7.35a.75.75,0,0,1-.22.56.81.81,0,0,1-.57.22h-2.85a.77.77,0,0,1-.79-.78v-7.35c0-2-.81-3.06-2.44-3.06a5.16,5.16,0,0,0-3.42,1.83v8.58a.79.79,0,0,1-.22.56.8.8,0,0,1-.56.22h-2.87a.77.77,0,0,1-.56-.22.79.79,0,0,1-.22-.56Zm28.22-.8a8.4,8.4,0,0,1,0-10.86,9.84,9.84,0,0,1,11.46,0,8.37,8.37,0,0,1,0,10.86,9.84,9.84,0,0,1-11.46,0Zm3.23-8.75a7.27,7.27,0,0,0,0,6.63,3.5,3.5,0,0,0,5,0,7.27,7.27,0,0,0,0-6.63,3.52,3.52,0,0,0-5,0Zm21.74,4.84v-12a.77.77,0,0,1,.78-.8h2.86a.78.78,0,0,1,.57.23.79.79,0,0,1,.21.56v4.27h3.55a.74.74,0,0,1,.77.78V156a.73.73,0,0,1-.22.56.74.74,0,0,1-.55.22h-3.55v4.75a3,3,0,0,0,.62,2,2,2,0,0,0,1.64.72,7.53,7.53,0,0,0,.92-.07,5.65,5.65,0,0,1,.83-.08h.47a.8.8,0,0,1,.57.21.7.7,0,0,1,.22.54v1.33a.66.66,0,0,1-.22.5,1,1,0,0,1-.57.26,18.46,18.46,0,0,1-3.4.25q-5.5,0-5.5-5.75Zm22.11,3.91a7,7,0,0,1-2-5.38,7.15,7.15,0,0,1,2-5.43,8.94,8.94,0,0,1,11,0,7.07,7.07,0,0,1,2,5.39v.75a.8.8,0,0,1-.23.58.78.78,0,0,1-.57.23h-9.63a3.06,3.06,0,0,0,.9,2.13,3.56,3.56,0,0,0,2.38.67,3.11,3.11,0,0,0,2.5-.84,1.87,1.87,0,0,1,1.47-.68h1.91a.78.78,0,0,1,.57.23.82.82,0,0,1,.22.59c0,2.41-2.33,3.62-7,3.61a7.78,7.78,0,0,1-5.5-1.84Zm2.52-6.78h5.94c-.08-2-1.07-3-3-3s-2.88,1-3,3Zm22,7.58V149.4a.78.78,0,0,1,.23-.57.73.73,0,0,1,.55-.23h2.87a.74.74,0,0,1,.56.23.81.81,0,0,1,.22.57v16.76a.79.79,0,0,1-.22.56.8.8,0,0,1-.56.22h-2.87a.75.75,0,0,1-.78-.78Z"/><path class="cls-6" d="M106,158a1.46,1.46,0,1,1-1.45,1.46A1.45,1.45,0,0,1,106,158Z"/><path class="cls-6" d="M256.77,158a1.46,1.46,0,1,1-1.45,1.46A1.45,1.45,0,0,1,256.77,158Z"/></g></g></svg>