<svg id="Layer_1" enable-background="new 0 0 512 512" height="512" viewBox="0 0 512 512" width="512" xmlns="http://www.w3.org/2000/svg"><g><g fill="#ff7680"><path d="m151.13 0c-4.143 0-7.5 3.357-7.5 7.5v22.43h-14.86v-22.43c0-4.143-3.357-7.5-7.5-7.5s-7.5 3.357-7.5 7.5v89.86c0 4.143 3.357 7.5 7.5 7.5s7.5-3.357 7.5-7.5v-52.43h14.86v22.43c0 4.143 3.357 7.5 7.5 7.5s7.5-3.357 7.5-7.5v-59.86c0-4.143-3.358-7.5-7.5-7.5z"/><path d="m326.727 15c4.143 0 7.5-3.357 7.5-7.5s-3.357-7.5-7.5-7.5h-28.86c-4.143 0-7.5 3.357-7.5 7.5v59.86c0 4.143 3.357 7.5 7.5 7.5h28.86c4.143 0 7.5-3.357 7.5-7.5s-3.357-7.5-7.5-7.5h-21.36v-14.93h21.36c4.143 0 7.5-3.357 7.5-7.5s-3.357-7.5-7.5-7.5h-21.36v-14.93z"/><path d="m268.983 0h-29.86c-4.143 0-7.5 3.357-7.5 7.5s3.357 7.5 7.5 7.5h7.431v52.36c0 4.143 3.357 7.5 7.5 7.5s7.5-3.357 7.5-7.5v-52.36h7.43c4.143 0 7.5-3.357 7.5-7.5s-3.358-7.5-7.501-7.5z"/><path d="m211.13 0h-29.86c-4.143 0-7.5 3.357-7.5 7.5v59.86c0 4.143 3.357 7.5 7.5 7.5h29.86c4.143 0 7.5-3.357 7.5-7.5v-59.86c0-4.143-3.358-7.5-7.5-7.5zm-7.5 59.86h-14.86v-44.86h14.86z"/><path d="m385.727 59.86h-21.36v-52.36c0-4.143-3.357-7.5-7.5-7.5s-7.5 3.357-7.5 7.5v59.86c0 4.143 3.357 7.5 7.5 7.5h21.36v22.5c0 4.143 3.357 7.5 7.5 7.5s7.5-3.357 7.5-7.5v-30c0-4.142-3.357-7.5-7.5-7.5z"/></g><path d="m116.27 112.39h274.46v384.63h-274.46z" fill="#ffff4d"/><path d="m390.73 112.39v384.63h-274.46v-39.19h242.5c9.43 0 17.08-7.65 17.08-17.08v-328.36z" fill="#ffe150"/><path d="m411.01 107.09c0 11.17-9.08 20.22-20.28 20.22h-274.46c-5.6 0-10.67-2.26-14.34-5.92s-5.94-8.71-5.94-14.3c0-5.37 4.37-9.73 9.76-9.73h295.5c2.7 0 5.14 1.09 6.9 2.85 1.77 1.76 2.86 4.19 2.86 6.88z" fill="#46637f"/><path d="m408.15 100.21c1.77 1.76 2.86 4.19 2.86 6.88 0 11.17-9.08 20.22-20.28 20.22h-30c11.2 0 20.28-9.05 20.28-20.22 0-2.69-1.09-5.12-2.86-6.88-1.76-1.76-4.2-2.85-6.9-2.85h30c2.7 0 5.14 1.09 6.9 2.85z" fill="#234063"/><g><g><path d="m196.14 157.54v60c0 2.76-2.24 5-5 5h-40c-2.76 0-5-2.24-5-5v-60c0-2.76 2.24-5 5-5h40c2.76 0 5 2.24 5 5z" fill="#40d7ff"/></g><path d="m196.14 157.54v30h-50v-30c0-2.76 2.24-5 5-5h40c2.76 0 5 2.24 5 5z" fill="#46637f"/></g><g><g><path d="m196.14 247.38v60c0 2.76-2.24 5-5 5h-40c-2.76 0-5-2.24-5-5v-60c0-2.76 2.24-5 5-5h40c2.76 0 5 2.24 5 5z" fill="#40d7ff"/></g><path d="m196.14 247.38v30h-50v-30c0-2.76 2.24-5 5-5h40c2.76 0 5 2.24 5 5z" fill="#46637f"/></g><g><g><path d="m196.14 337.219v92c0 2.76-2.24 5-5 5h-40c-2.76 0-5-2.24-5-5v-92c0-2.76 2.24-5 5-5h40c2.76 0 5 2.24 5 5z" fill="#40d7ff"/></g><path d="m196.14 337.219v30h-50v-30c0-2.76 2.24-5 5-5h40c2.76 0 5 2.24 5 5z" fill="#46637f"/></g><g><g><path d="m278.498 157.54v60c0 2.76-2.24 5-5 5h-40c-2.76 0-5-2.24-5-5v-60c0-2.76 2.24-5 5-5h40c2.76 0 5 2.24 5 5z" fill="#40d7ff"/></g><path d="m278.498 157.54v30h-50v-30c0-2.76 2.24-5 5-5h40c2.76 0 5 2.24 5 5z" fill="#46637f"/></g><g><g><path d="m278.498 247.38v60c0 2.76-2.24 5-5 5h-40c-2.76 0-5-2.24-5-5v-60c0-2.76 2.24-5 5-5h40c2.76 0 5 2.24 5 5z" fill="#40d7ff"/></g><path d="m278.498 247.38v30h-50v-30c0-2.76 2.24-5 5-5h40c2.76 0 5 2.24 5 5z" fill="#46637f"/></g><g><g><path d="m278.5 337.22v154.8c0 2.76-2.24 5-5 5h-40c-2.76 0-5-2.24-5-5v-154.8c0-2.76 2.24-5 5-5h40c2.76 0 5 2.24 5 5z" fill="#40d7ff"/></g><path d="m278.498 337.219v30h-50v-30c0-2.76 2.24-5 5-5h40c2.76 0 5 2.24 5 5z" fill="#46637f"/></g><path d="m278.5 457.83v34.19c0 2.76-2.24 5-5 5h-40c-2.76 0-5-2.24-5-5v-34.19z" fill="#2aa6f2"/><g><g><path d="m360.855 157.54v60c0 2.76-2.24 5-5 5h-40c-2.76 0-5-2.24-5-5v-60c0-2.76 2.24-5 5-5h40c2.76 0 5 2.24 5 5z" fill="#40d7ff"/></g><path d="m360.855 157.54v30h-50v-30c0-2.76 2.24-5 5-5h40c2.76 0 5 2.24 5 5z" fill="#46637f"/></g><g><g><path d="m360.855 247.38v60c0 2.76-2.24 5-5 5h-40c-2.76 0-5-2.24-5-5v-60c0-2.76 2.24-5 5-5h40c2.76 0 5 2.24 5 5z" fill="#40d7ff"/></g><path d="m360.855 247.38v30h-50v-30c0-2.76 2.24-5 5-5h40c2.76 0 5 2.24 5 5z" fill="#46637f"/></g><g><g><path d="m360.855 337.219v92c0 2.76-2.24 5-5 5h-40c-2.76 0-5-2.24-5-5v-92c0-2.76 2.24-5 5-5h40c2.76 0 5 2.24 5 5z" fill="#40d7ff"/></g><path d="m360.855 337.219v30h-50v-30c0-2.76 2.24-5 5-5h40c2.76 0 5 2.24 5 5z" fill="#46637f"/></g><path d="m442 491.78c0 11.17-9.1 20.22-20.33 20.22h-331.35c-5.61 0-10.69-2.26-14.37-5.92s-5.95-8.72-5.95-14.3c0-5.38 4.38-9.73 9.78-9.73h352.44c2.7 0 5.15 1.09 6.91 2.85 1.78 1.76 2.87 4.19 2.87 6.88z" fill="#53f46e"/><path d="m439.13 484.9c1.78 1.76 2.87 4.19 2.87 6.88 0 11.17-9.1 20.22-20.33 20.22h-32.5c11.23 0 20.33-9.05 20.33-20.22 0-2.69-1.09-5.12-2.87-6.88-1.76-1.76-4.21-2.85-6.91-2.85h32.5c2.7 0 5.15 1.09 6.91 2.85z" fill="#33e279"/></g></svg>